<svg id="visual" viewBox="0 0 900 600" width="900" height="600" xmlns="http://www.w3.org/2000/svg" xmlns:xlink="http://www.w3.org/1999/xlink" version="1.1"><path d="M0 193L13.7 181C27.3 169 54.7 145 82 139C109.3 133 136.7 145 163.8 150C191 155 218 153 245.2 156C272.3 159 299.7 167 327 161C354.3 155 381.7 135 409 152C436.3 169 463.7 223 491 246C518.3 269 545.7 261 573 250C600.3 239 627.7 225 654.8 216C682 207 709 203 736.2 188C763.3 173 790.7 147 818 133C845.3 119 872.7 117 886.3 116L900 115L900 0L886.3 0C872.7 0 845.3 0 818 0C790.7 0 763.3 0 736.2 0C709 0 682 0 654.8 0C627.7 0 600.3 0 573 0C545.7 0 518.3 0 491 0C463.7 0 436.3 0 409 0C381.7 0 354.3 0 327 0C299.7 0 272.3 0 245.2 0C218 0 191 0 163.8 0C136.7 0 109.3 0 82 0C54.7 0 27.3 0 13.7 0L0 0Z" fill="#a067ff"></path><path d="M0 295L13.7 294C27.3 293 54.7 291 82 291C109.3 291 136.7 293 163.8 296C191 299 218 303 245.2 305C272.3 307 299.7 307 327 322C354.3 337 381.7 367 409 388C436.3 409 463.7 421 491 418C518.3 415 545.7 397 573 381C600.3 365 627.7 351 654.8 341C682 331 709 325 736.2 322C763.3 319 790.7 319 818 319C845.3 319 872.7 319 886.3 319L900 319L900 113L886.3 114C872.7 115 845.3 117 818 131C790.7 145 763.3 171 736.2 186C709 201 682 205 654.8 214C627.7 223 600.3 237 573 248C545.7 259 518.3 267 491 244C463.7 221 436.3 167 409 150C381.7 133 354.3 153 327 159C299.7 165 272.3 157 245.2 154C218 151 191 153 163.8 148C136.7 143 109.3 131 82 137C54.7 143 27.3 167 13.7 179L0 191Z" fill="#8642ff"></path><path d="M0 391L13.7 393C27.3 395 54.7 399 82 392C109.3 385 136.7 367 163.8 363C191 359 218 369 245.2 376C272.3 383 299.7 387 327 404C354.3 421 381.7 451 409 468C436.3 485 463.7 489 491 484C518.3 479 545.7 465 573 456C600.3 447 627.7 443 654.8 439C682 435 709 431 736.2 433C763.3 435 790.7 443 818 444C845.3 445 872.7 439 886.3 436L900 433L900 317L886.3 317C872.7 317 845.3 317 818 317C790.7 317 763.3 317 736.2 320C709 323 682 329 654.8 339C627.7 349 600.3 363 573 379C545.7 395 518.3 413 491 416C463.7 419 436.3 407 409 386C381.7 365 354.3 335 327 320C299.7 305 272.3 305 245.2 303C218 301 191 297 163.8 294C136.7 291 109.3 289 82 289C54.7 289 27.3 291 13.7 292L0 293Z" fill="#6600ff"></path><path d="M0 463L13.7 466C27.3 469 54.7 475 82 473C109.3 471 136.7 461 163.8 458C191 455 218 459 245.2 459C272.3 459 299.7 455 327 468C354.3 481 381.7 511 409 526C436.3 541 463.7 541 491 541C518.3 541 545.7 541 573 537C600.3 533 627.7 525 654.8 519C682 513 709 509 736.2 504C763.3 499 790.7 493 818 490C845.3 487 872.7 487 886.3 487L900 487L900 431L886.3 434C872.7 437 845.3 443 818 442C790.7 441 763.3 433 736.2 431C709 429 682 433 654.8 437C627.7 441 600.3 445 573 454C545.7 463 518.3 477 491 482C463.7 487 436.3 483 409 466C381.7 449 354.3 419 327 402C299.7 385 272.3 381 245.2 374C218 367 191 357 163.8 361C136.7 365 109.3 383 82 390C54.7 397 27.3 393 13.7 391L0 389Z" fill="#5802dc"></path><path d="M0 601L13.7 601C27.3 601 54.7 601 82 601C109.3 601 136.7 601 163.8 601C191 601 218 601 245.2 601C272.3 601 299.7 601 327 601C354.3 601 381.7 601 409 601C436.3 601 463.7 601 491 601C518.3 601 545.7 601 573 601C600.3 601 627.7 601 654.8 601C682 601 709 601 736.2 601C763.3 601 790.7 601 818 601C845.3 601 872.7 601 886.3 601L900 601L900 485L886.3 485C872.7 485 845.3 485 818 488C790.7 491 763.3 497 736.2 502C709 507 682 511 654.8 517C627.7 523 600.3 531 573 535C545.7 539 518.3 539 491 539C463.7 539 436.3 539 409 524C381.7 509 354.3 479 327 466C299.7 453 272.3 457 245.2 457C218 457 191 453 163.8 456C136.7 459 109.3 469 82 471C54.7 473 27.3 467 13.7 464L0 461Z" fill="#4b03ba"></path></svg>